<?xml version="1.0" encoding="UTF-8" standalone="no"?>
<!DOCTYPE svg PUBLIC "-//W3C//DTD SVG 1.1//EN" "http://www.w3.org/Graphics/SVG/1.1/DTD/svg11.dtd">
<svg version="1.1" xmlns="http://www.w3.org/2000/svg" xmlns:xlink="http://www.w3.org/1999/xlink" preserveAspectRatio="xMidYMid meet" viewBox="0 0 640 640" width="640" height="640"><defs><path d="M372.68 184.81L372.86 184.83L373.05 184.85L373.23 184.88L373.4 184.92L373.58 184.97L373.75 185.02L373.92 185.08L374.08 185.15L374.24 185.22L374.4 185.3L374.56 185.38L374.71 185.47L374.78 185.52L375.52 185.57L378.26 185.85L380.96 186.23L383.63 186.72L386.27 187.32L388.86 188.01L391.41 188.8L393.92 189.69L396.38 190.68L398.79 191.75L401.15 192.92L403.46 194.17L405.71 195.51L407.91 196.94L410.04 198.44L412.12 200.02L414.13 201.68L416.08 203.42L417.95 205.23L419.76 207.1L421.5 209.05L423.16 211.06L424.74 213.14L426.24 215.27L427.67 217.47L429.01 219.72L430.26 222.03L431.43 224.39L432.5 226.81L433.49 229.27L434.38 231.77L435.17 234.32L435.87 236.92L436.46 239.55L436.95 242.22L437.34 244.92L437.61 247.66L437.77 250.25L465.69 250.25L467.3 250.28L468.9 250.38L470.48 250.54L472.04 250.76L473.58 251.04L475.1 251.38L476.59 251.78L478.07 252.24L479.51 252.76L480.93 253.32L482.32 253.94L483.69 254.62L485.02 255.34L486.32 256.11L487.58 256.93L488.82 257.8L490.01 258.72L491.18 259.67L492.3 260.67L493.38 261.72L494.42 262.8L495.42 263.92L496.38 265.08L497.3 266.28L498.16 267.51L498.98 268.78L499.76 270.08L500.48 271.41L501.15 272.78L501.77 274.17L502.34 275.59L502.86 277.03L503.31 278.5L503.71 280L504.06 281.52L504.34 283.06L504.56 284.62L504.72 286.2L504.82 287.8L504.85 289.41L504.85 463.73L504.82 465.34L504.72 466.94L504.56 468.52L504.34 470.08L504.06 471.62L503.71 473.14L503.31 474.64L502.86 476.11L502.34 477.55L501.77 478.97L501.15 480.37L500.48 481.73L499.76 483.06L498.98 484.36L498.16 485.63L497.3 486.86L496.38 488.06L495.42 489.22L494.42 490.34L493.38 491.42L492.3 492.47L491.18 493.47L490.01 494.42L488.82 495.34L487.58 496.21L486.32 497.03L485.02 497.8L483.69 498.52L482.32 499.2L480.93 499.82L479.51 500.38L478.07 500.9L476.59 501.36L475.1 501.76L473.58 502.1L472.04 502.38L470.48 502.6L468.9 502.77L467.3 502.86L465.69 502.9L183.92 502.9L182.3 502.86L180.7 502.77L179.12 502.6L177.56 502.38L176.02 502.1L174.5 501.76L173.01 501.36L171.54 500.9L170.09 500.38L168.67 499.82L167.28 499.2L165.92 498.52L164.59 497.8L163.29 497.03L162.02 496.21L160.79 495.34L159.59 494.42L158.43 493.47L157.31 492.47L156.22 491.42L155.18 490.34L154.18 489.22L153.22 488.06L152.31 486.86L151.44 485.63L150.62 484.36L149.85 483.06L149.12 481.73L148.45 480.37L147.83 478.97L147.26 477.55L146.75 476.11L146.29 474.64L145.89 473.14L145.55 471.62L145.26 470.08L145.04 468.52L144.88 466.94L144.78 465.34L144.75 463.73L144.75 289.41L144.78 287.8L144.88 286.2L145.04 284.62L145.26 283.06L145.55 281.52L145.89 280L146.29 278.5L146.75 277.03L147.26 275.59L147.83 274.17L148.45 272.78L149.12 271.41L149.85 270.08L150.62 268.78L151.44 267.51L152.31 266.28L153.22 265.08L154.18 263.92L155.18 262.8L156.22 261.72L157.31 260.67L158.43 259.67L159.59 258.72L160.79 257.8L162.02 256.93L163.29 256.11L164.59 255.34L165.92 254.62L167.28 253.94L168.67 253.32L170.09 252.76L171.54 252.24L173.01 251.78L174.5 251.38L176.02 251.04L177.56 250.76L179.12 250.54L180.7 250.38L182.3 250.28L183.92 250.25L208.47 250.25L208.63 247.66L208.91 244.92L209.29 242.22L209.78 239.55L210.38 236.92L211.07 234.32L211.87 231.77L212.76 229.27L213.74 226.8L214.82 224.39L215.98 222.03L217.24 219.72L218.58 217.47L220 215.27L221.5 213.14L223.09 211.06L224.75 209.05L226.48 207.1L228.29 205.23L230.17 203.42L232.11 201.68L234.12 200.02L236.2 198.44L238.34 196.94L240.53 195.51L242.78 194.17L245.09 192.92L247.45 191.75L249.87 190.68L252.33 189.69L254.83 188.8L257.38 188.01L259.98 187.32L262.61 186.72L265.28 186.23L267.99 185.85L270.72 185.57L273.49 185.4L273.88 185.39L273.89 185.38L274.05 185.3L274.2 185.22L274.37 185.15L274.53 185.08L274.7 185.02L274.87 184.97L275.05 184.92L275.22 184.88L275.4 184.85L275.58 184.83L275.77 184.81L275.95 184.8L276.14 184.79L372.31 184.79L372.49 184.8L372.68 184.81ZM315.35 260.62L310.99 261.06L306.68 261.68L302.42 262.46L298.23 263.41L294.1 264.51L290.03 265.78L286.04 267.2L282.12 268.77L278.27 270.49L274.51 272.35L270.83 274.35L267.23 276.48L263.73 278.75L260.33 281.15L257.02 283.68L253.81 286.32L250.71 289.09L247.71 291.97L244.83 294.97L242.07 298.07L239.42 301.28L236.89 304.58L234.49 307.99L232.22 311.49L230.09 315.09L228.09 318.77L226.23 322.53L224.51 326.37L222.94 330.3L221.52 334.29L220.26 338.36L219.15 342.49L218.2 346.68L217.42 350.94L216.8 355.25L216.36 359.61L216.09 364.02L216 368.48L216.09 372.94L216.36 377.35L216.8 381.72L217.42 386.03L218.2 390.28L219.15 394.48L220.26 398.61L221.52 402.67L222.94 406.67L224.51 410.59L226.23 414.44L228.09 418.2L230.09 421.88L232.22 425.47L234.49 428.97L236.89 432.38L239.42 435.69L242.07 438.9L244.83 442L247.71 444.99L250.71 447.87L253.81 450.64L257.02 453.29L260.33 455.81L263.73 458.21L267.23 460.48L270.83 462.62L274.51 464.62L278.27 466.48L282.12 468.2L286.04 469.77L290.03 471.18L294.1 472.45L298.23 473.56L302.42 474.51L306.68 475.29L310.99 475.9L315.35 476.35L319.77 476.62L324.22 476.71L328.68 476.62L333.09 476.35L337.46 475.9L341.77 475.29L346.02 474.51L350.22 473.56L354.35 472.45L358.42 471.18L362.41 469.77L366.33 468.2L370.18 466.48L373.94 464.62L377.62 462.62L381.21 460.48L384.71 458.21L388.12 455.81L391.43 453.29L394.64 450.64L397.74 447.87L400.73 444.99L403.62 442L406.38 438.9L409.03 435.69L411.55 432.38L413.95 428.97L416.22 425.47L418.36 421.88L420.36 418.2L422.22 414.44L423.94 410.59L425.51 406.67L426.93 402.67L428.19 398.61L429.3 394.48L430.25 390.28L431.03 386.03L431.64 381.72L432.09 377.35L432.36 372.94L432.45 368.48L432.36 364.02L432.09 359.61L431.64 355.25L431.03 350.94L430.25 346.68L429.3 342.49L428.19 338.36L426.93 334.29L425.51 330.3L423.94 326.37L422.22 322.53L420.36 318.77L418.36 315.09L416.22 311.49L413.95 307.99L411.55 304.58L409.03 301.28L406.38 298.07L403.62 294.97L400.73 291.97L397.74 289.09L394.64 286.32L391.43 283.68L388.12 281.15L384.71 278.75L381.21 276.48L377.62 274.35L373.94 272.35L370.18 270.49L366.33 268.77L362.41 267.2L358.42 265.78L354.35 264.51L350.22 263.41L346.02 262.46L341.77 261.68L337.46 261.06L333.09 260.62L328.68 260.35L324.22 260.26L319.77 260.35L315.35 260.62ZM330.95 286.72L334.26 287.06L337.52 287.52L340.75 288.12L343.93 288.83L347.06 289.67L350.14 290.63L353.17 291.71L356.14 292.9L359.06 294.2L361.91 295.61L364.7 297.13L367.42 298.75L370.08 300.47L372.66 302.28L375.17 304.2L377.6 306.21L379.95 308.3L382.22 310.49L384.4 312.76L386.5 315.11L388.51 317.54L390.42 320.05L392.24 322.63L393.96 325.28L395.58 328.01L397.1 330.8L398.51 333.65L399.81 336.56L401 339.54L402.07 342.57L403.03 345.65L403.87 348.78L404.59 351.96L405.18 355.18L405.65 358.45L405.99 361.76L406.19 365.1L406.26 368.48L406.19 371.86L405.99 375.21L405.65 378.51L405.18 381.78L404.59 385.01L403.87 388.19L403.03 391.32L402.07 394.4L401 397.43L399.81 400.4L398.51 403.32L397.1 406.17L395.58 408.96L393.96 411.68L392.24 414.34L390.42 416.92L388.51 419.43L386.5 421.86L384.4 424.21L382.22 426.48L379.95 428.66L377.6 430.76L375.17 432.77L372.66 434.68L370.08 436.5L367.42 438.22L364.7 439.84L361.91 441.35L359.06 442.76L356.14 444.07L353.17 445.26L350.14 446.33L347.06 447.29L343.93 448.13L340.75 448.85L337.52 449.44L334.26 449.91L330.95 450.24L327.6 450.45L324.22 450.52L320.84 450.45L317.5 450.24L314.19 449.91L310.92 449.44L307.7 448.85L304.52 448.13L301.39 447.29L298.31 446.33L295.28 445.26L292.31 444.07L289.39 442.76L286.54 441.35L283.75 439.84L281.03 438.22L278.37 436.5L275.79 434.68L273.28 432.77L270.85 430.76L268.5 428.66L266.23 426.48L264.04 424.21L261.95 421.86L259.94 419.43L258.03 416.92L256.21 414.34L254.49 411.68L252.87 408.96L251.35 406.17L249.94 403.32L248.64 400.4L247.45 397.43L246.37 394.4L245.42 391.32L244.58 388.19L243.86 385.01L243.26 381.78L242.8 378.51L242.46 375.21L242.26 371.86L242.19 368.48L242.26 365.1L242.46 361.76L242.8 358.45L243.26 355.18L243.86 351.96L244.58 348.78L245.42 345.65L246.37 342.57L247.45 339.54L248.64 336.56L249.94 333.65L251.35 330.8L252.87 328.01L254.49 325.28L256.21 322.63L258.03 320.05L259.94 317.54L261.95 315.11L264.04 312.76L266.23 310.49L268.5 308.3L270.85 306.21L273.28 304.2L275.79 302.28L278.37 300.47L281.03 298.75L283.75 297.13L286.54 295.61L289.39 294.2L292.31 292.9L295.28 291.71L298.31 290.63L301.39 289.67L304.52 288.83L307.7 288.12L310.92 287.52L314.19 287.06L317.5 286.72L320.84 286.52L324.22 286.45L327.6 286.52L330.95 286.72ZM323.47 318.77L323.09 318.97L322.73 319.25L322.36 319.6L322 320.03L321.65 320.53L321.3 321.1L320.96 321.74L320.63 322.45L320.3 323.23L319.98 324.07L319.66 324.97L319.36 325.94L319.06 326.97L318.77 328.05L318.48 329.19L318.21 330.39L317.94 331.64L317.69 332.94L317.44 334.29L317.21 335.7L316.98 337.14L316.76 338.64L316.56 340.18L316.37 341.76L316.18 343.39L316.01 345.05L315.85 346.75L315.71 348.49L315.57 350.26L315.45 352.07L315.34 353.9L315.25 355.77L315.17 357.67L315.1 359.59L315.05 361.54L315.01 363.51L314.99 365.5L314.98 367.52L314.99 369.53L315.01 371.53L315.05 373.5L315.1 375.45L315.17 377.37L315.25 379.27L315.34 381.14L315.45 382.97L315.57 384.78L315.71 386.55L315.85 388.29L316.01 389.99L316.18 391.65L316.37 393.28L316.56 394.86L316.76 396.4L316.98 397.89L317.21 399.34L317.44 400.75L317.69 402.1L317.94 403.4L318.21 404.65L318.48 405.85L318.77 406.99L319.06 408.07L319.36 409.1L319.66 410.07L319.98 410.97L320.3 411.81L320.63 412.59L320.96 413.3L321.3 413.94L321.65 414.51L322 415.01L322.36 415.44L322.73 415.79L323.09 416.07L323.47 416.27L323.84 416.39L324.22 416.43L324.6 416.39L324.98 416.27L325.35 416.07L325.72 415.79L326.09 415.44L326.44 415.01L326.8 414.51L327.14 413.94L327.49 413.3L327.82 412.59L328.15 411.81L328.47 410.97L328.78 410.07L329.09 409.1L329.39 408.07L329.68 406.99L329.96 405.85L330.24 404.65L330.5 403.4L330.76 402.1L331 400.75L331.24 399.34L331.47 397.89L331.68 396.4L331.89 394.86L332.08 393.28L332.26 391.65L332.43 389.99L332.59 388.29L332.74 386.55L332.87 384.78L333 382.97L333.1 381.14L333.2 379.27L333.28 377.37L333.35 375.45L333.4 373.5L333.44 371.53L333.46 369.53L333.47 367.52L333.46 365.5L333.44 363.51L333.4 361.54L333.35 359.59L333.28 357.67L333.2 355.77L333.1 353.9L333 352.07L332.87 350.26L332.74 348.49L332.59 346.75L332.43 345.05L332.26 343.39L332.08 341.76L331.89 340.18L331.68 338.64L331.47 337.14L331.24 335.7L331 334.29L330.76 332.94L330.5 331.64L330.24 330.39L329.96 329.19L329.68 328.05L329.39 326.97L329.09 325.94L328.78 324.97L328.47 324.07L328.15 323.23L327.82 322.45L327.49 321.74L327.14 321.1L326.8 320.53L326.44 320.03L326.09 319.6L325.72 319.25L325.35 318.97L324.98 318.77L324.6 318.65L324.22 318.61L323.84 318.65L323.47 318.77Z" id="a5gPe8opZ2"></path><path d="" id="n5Pmtgxzu3"></path><path d="M232.18 136.95C232.18 149.07 222.34 158.9 210.22 158.9C198.11 158.9 188.27 149.07 188.27 136.95C188.27 124.84 198.11 115 210.22 115C222.34 115 232.18 124.84 232.18 136.95Z" id="c3BmjQ7tqs"></path><path d="M460.95 175.91C460.95 188.03 451.11 197.87 438.99 197.87C426.88 197.87 417.04 188.03 417.04 175.91C417.04 163.8 426.88 153.96 438.99 153.96C451.11 153.96 460.95 163.8 460.95 175.91Z" id="a1naZVwJn"></path><path d="M541.06 189.78C541.06 201.9 531.22 211.73 519.1 211.73C506.99 211.73 497.15 201.9 497.15 189.78C497.15 177.66 506.99 167.83 519.1 167.83C531.22 167.83 541.06 177.66 541.06 189.78Z" id="awM7ukuZL"></path><path d="M615 413.16C615 425.27 605.16 435.11 593.05 435.11C580.93 435.11 571.1 425.27 571.1 413.16C571.1 401.04 580.93 391.21 593.05 391.21C605.16 391.21 615 401.04 615 413.16Z" id="bdaXzdqMx"></path><path d="M97.38 450.52C97.38 462.63 87.54 472.47 75.43 472.47C63.31 472.47 53.47 462.63 53.47 450.52C53.47 438.4 63.31 428.56 75.43 428.56C87.54 428.56 97.38 438.4 97.38 450.52Z" id="c7WXrQpR7"></path><path d="M88.91 264.5C88.91 276.61 79.07 286.45 66.95 286.45C54.84 286.45 45 276.61 45 264.5C45 252.38 54.84 242.54 66.95 242.54C79.07 242.54 88.91 252.38 88.91 264.5Z" id="b1zv9waunC"></path><path d="M58.65 280.48C60.45 282.48 61.57 283.72 62.02 284.22C65.22 287.79 67.14 292.31 67.49 297.09C67.73 300.32 67.44 296.37 67.56 298.04C68.3 308.13 70.08 318.12 72.87 327.84C73.65 330.54 70.68 320.21 71.18 321.96C74.62 333.9 84.31 342.99 96.44 345.67C96.84 345.76 97.86 345.98 99.48 346.34C102.46 346.12 104.32 345.99 105.06 345.93C114.3 345.26 121.97 338.55 123.86 329.49C123.9 329.32 123.99 328.91 124.13 328.24C126.44 324.14 127.89 321.58 128.47 320.56C131.64 314.96 139.72 314.96 142.89 320.56C143.47 321.58 144.92 324.14 147.23 328.24L150.32 273.55C146.96 277.26 144.86 279.58 144.02 280.5C138.47 286.64 132.41 292.29 125.9 297.4C122.85 299.79 125.15 297.98 122.52 300.05C114.84 306.07 109.49 314.57 107.37 324.09C107.26 324.61 108.55 318.82 108.02 321.18C107.3 324.4 104.45 326.7 101.14 326.7C100.39 326.7 106.79 326.7 106.79 326.7C100.79 326.7 95.07 324.18 91.01 319.76C89.32 317.91 97.18 326.48 97.14 326.43C87.74 316.2 82.53 302.81 82.53 288.92C82.53 287.18 82.53 282.82 82.53 275.86L58.65 280.48Z" id="bMhfL3D0X"></path><path d="" id="k3kxl2dFI9"></path><path d="M147.62 424.9C145.25 422.02 143.76 420.21 143.17 419.49C138.14 413.38 128.74 413.49 123.86 419.73C123.42 420.29 122.31 421.71 120.54 423.97C120.54 423.97 120.54 423.97 120.54 423.97C113.48 437.66 104.05 449.98 92.67 460.37C92.17 460.83 90.91 461.97 88.91 463.8L83.09 435.34C83.09 435.35 83.09 435.35 83.1 435.35C89.44 436.21 95.48 432.37 97.38 426.25C97.38 426.25 97.38 426.25 97.38 426.25C99.88 421.73 101.45 418.9 102.07 417.76C107.42 408.1 115.45 400.19 125.2 394.99C125.78 394.69 124 395.64 127.43 393.81C127.87 393.57 128.33 393.41 128.82 393.31C132.27 392.62 128.67 393.34 128.82 393.31C139 391.27 146.54 382.65 147.21 372.29C147.27 371.45 147.4 369.34 147.62 365.98L147.62 424.9Z" id="axMuhYwGF"></path><path d="M499.85 424.9C502.26 411.87 503.77 403.72 504.37 400.46C505.99 391.7 511.04 383.94 518.38 378.91C518.65 378.72 519.32 378.26 520.39 377.53C524.71 377.3 527.41 377.16 528.49 377.1C534.63 376.78 540.45 379.89 543.59 385.19C543.98 385.86 544.98 387.55 546.57 390.24C547.21 391.39 547.6 392.11 547.76 392.4C554.07 403.9 562.97 413.77 573.76 421.24C574.25 421.58 575.45 422.41 577.39 423.75L587.78 398.33C586.56 398.45 585.79 398.53 585.48 398.56C577.68 399.34 570.28 394.98 567.18 387.77C566.54 386.28 564.93 382.55 562.37 376.57C559.68 372.8 558 370.45 557.33 369.51C550.53 359.97 539.78 354 528.09 353.27C528.09 353.27 528.09 353.27 528.09 353.27C524.68 353.27 522.54 353.27 521.69 353.27C510.33 353.27 500.71 344.92 499.1 333.68C499.01 333.05 498.79 331.5 498.43 329.01L499.85 424.9Z" id="gf3z6GiG9"></path><path d="" id="b1JqCFISA"></path><path d="M515.49 223.1L515.25 223.47L515.03 223.85L514.83 224.23L514.64 224.62L514.48 225.02L514.34 225.42L514.22 225.82L514.12 226.23L514.04 226.63L513.98 227.04L513.93 227.45L513.91 227.87L513.9 228.28L513.91 228.68L513.94 229.09L513.99 229.5L514.06 229.9L514.14 230.3L514.25 230.69L514.37 231.08L514.5 231.47L514.66 231.85L514.83 232.22L515.02 232.58L515.22 232.93L515.44 233.28L515.68 233.62L515.93 233.94L516.2 234.26L516.48 234.56L516.78 234.86L517.1 235.14L517.42 235.4L517.77 235.65L518.13 235.89L518.5 236.11L518.89 236.32L519.29 236.51L519.71 236.68L527.64 239.74L528.02 239.89L528.41 240.04L528.79 240.2L529.17 240.36L529.55 240.52L529.92 240.69L530.3 240.86L530.67 241.03L531.05 241.21L531.42 241.39L531.79 241.57L532.15 241.76L532.52 241.95L532.88 242.14L533.24 242.34L533.6 242.54L533.96 242.74L534.32 242.94L534.67 243.15L535.03 243.36L535.38 243.58L535.73 243.79L536.08 244.01L536.42 244.24L536.76 244.46L537.11 244.69L537.45 244.93L537.78 245.16L538.12 245.4L538.45 245.64L538.78 245.89L539.11 246.13L539.44 246.38L539.77 246.64L540.09 246.89L540.41 247.15L540.73 247.41L541.04 247.68L541.36 247.95L541.67 248.22L547.73 253.52L547.82 253.74L548.21 254.69L548.58 255.64L548.93 256.61L549.26 257.57L549.57 258.55L549.86 259.52L550.12 260.5L550.37 261.49L550.6 262.48L550.8 263.47L550.99 264.46L551.15 265.46L551.3 266.46L551.42 267.46L551.52 268.47L551.61 269.47L551.67 270.48L551.71 271.49L551.73 272.49L551.73 273.5L551.71 274.51L551.67 275.52L551.61 276.52L551.53 277.53L551.42 278.53L551.3 279.53L551.16 280.53L551 281.53L550.81 282.52L550.61 283.52L550.38 284.5L550.14 285.49L549.87 286.47L549.58 287.44L549.28 288.41L548.95 289.38L548.6 290.34L548.23 291.3L547.84 292.24L547.43 293.19L546.57 295.11L544.5 298.83L544.09 299.55L543.65 300.25L543.19 300.94L542.71 301.6L542.22 302.25L541.7 302.88L541.17 303.49L540.62 304.09L540.05 304.66L539.47 305.21L538.87 305.75L538.25 306.26L537.63 306.75L536.98 307.23L536.33 307.68L535.66 308.11L534.97 308.52L534.28 308.91L533.57 309.27L532.86 309.62L532.13 309.94L531.39 310.24L530.65 310.52L529.89 310.77L529.13 311L528.36 311.2L527.58 311.39L527.54 311.4L527.49 310.8L527.36 310.21L527.08 309.69L526.69 309.26L526.2 308.95L525.64 308.77L525.03 308.74L518.61 309.3L518.01 309.43L517.49 309.71L517.06 310.1L516.75 310.59L516.57 311.15L516.54 311.76L516.65 313.04L516.49 313.08L515.89 313.23L515.31 313.39L514.73 313.58L514.16 313.78L513.59 314L513.03 314.24L512.48 314.49L511.94 314.77L511.41 315.06L510.88 315.36L510.37 315.69L509.86 316.03L509.37 316.38L508.89 316.76L508.42 317.15L507.96 317.55L507.51 317.97L507.08 318.4L506.66 318.86L506.25 319.32L505.86 319.8L505.48 320.29L505.12 320.8L504.77 321.32L504.44 321.86L504.12 322.41L503.82 322.97L500.74 329.01L494.97 272.01L500.97 280.11L501.39 280.65L501.82 281.17L502.26 281.67L502.73 282.16L503.2 282.62L503.69 283.07L504.2 283.49L504.72 283.9L505.24 284.28L505.79 284.65L506.34 284.99L506.9 285.32L507.47 285.62L508.05 285.9L508.64 286.17L509.24 286.41L509.84 286.63L510.45 286.83L511.07 287.01L511.7 287.17L512.33 287.31L512.96 287.42L513.6 287.51L514.24 287.59L514.88 287.63L515.52 287.66L516.17 287.67L516.82 287.65L517.47 287.61L518.11 287.54L518.76 287.46L519.41 287.35L520.05 287.22L520.69 287.06L521.33 286.88L521.96 286.68L522.59 286.45L523.21 286.2L523.83 285.93L524.44 285.63L530.01 282.79L530.34 282.29L530.64 281.8L530.92 281.3L531.18 280.8L531.42 280.29L531.64 279.78L531.83 279.26L532.01 278.74L532.16 278.21L532.3 277.68L532.41 277.15L532.51 276.61L532.58 276.07L532.64 275.53L532.67 274.99L532.68 274.46L532.68 273.92L532.65 273.38L532.61 272.84L532.54 272.31L532.46 271.78L532.36 271.25L532.23 270.73L532.09 270.21L531.93 269.7L531.75 269.19L531.56 268.69L531.34 268.19L531.1 267.7L530.85 267.22L530.58 266.75L530.29 266.29L529.98 265.84L529.65 265.4L529.31 264.96L528.95 264.54L528.57 264.14L528.17 263.74L527.75 263.36L527.32 262.99L526.87 262.63L512.3 251.59L507.9 249.69L507.12 249.33L506.36 248.95L505.62 248.54L504.9 248.11L504.21 247.65L503.54 247.17L502.88 246.66L502.26 246.13L501.65 245.58L501.07 245.02L500.51 244.43L499.97 243.82L499.46 243.19L498.97 242.55L498.51 241.89L498.07 241.22L497.66 240.53L497.28 239.82L496.92 239.1L496.59 238.37L496.28 237.63L496 236.88L495.75 236.12L495.53 235.35L495.33 234.57L495.17 233.78L495.03 232.98L494.93 232.18L494.85 231.38L494.8 230.56L494.79 229.75L494.8 228.93L494.85 228.11L494.92 227.29L495.03 226.47L495.17 225.65L495.35 224.83L495.55 224.01L495.79 223.2L496.07 222.39L498.43 215.78L506.91 194.98L528.09 206.53L515.76 222.73L515.76 222.73L515.49 223.1Z" id="h55fEPjDMe"></path><path d="M378.77 197.87C377.46 197.44 376.63 197.17 376.3 197.07C365.09 193.44 355.13 186.71 347.58 177.65C347.58 177.65 347.58 177.65 347.58 177.65C343.27 172.4 340.57 169.12 339.49 167.8C335.49 162.93 335.61 155.88 339.77 151.13C342.18 148.39 338.32 152.78 339.77 151.13C347.24 142.62 358.64 138.66 369.78 140.71C370.59 140.86 372.6 141.23 375.83 141.83C386.03 148.76 392.4 153.09 394.95 154.82C400.32 158.47 405.23 162.76 409.57 167.59C410.96 169.14 414.43 173 419.98 179.19L432.45 181.11L438.99 162.63C438.99 162.63 438.99 162.63 438.99 162.63C432.56 162.63 426.45 159.78 422.31 154.85C420.36 152.52 415.47 146.71 407.66 137.4C405.32 135.62 403.86 134.51 403.27 134.07C387.67 122.21 367.79 117.52 348.53 121.14C347.79 121.28 345.93 121.63 342.96 122.19C340.56 123.33 339.07 124.05 338.47 124.33C325.08 130.74 316.84 144.53 317.54 159.35C317.54 159.35 317.54 159.35 317.54 159.35C318.62 165.62 319.29 169.54 319.56 171.1C321.26 180.97 315.27 190.53 305.65 193.31C305.23 193.43 304.19 193.73 302.52 194.21L378.77 197.87Z" id="d9c43cDHU"></path><path d="M238.79 200.17C238.79 200.17 238.79 200.17 238.79 200.17C232.85 202.78 226.18 203.23 219.94 201.44C217.75 200.81 212.26 199.23 203.47 196.7C195.77 194.35 190.96 192.88 189.04 192.29C182.76 190.38 179.12 183.84 180.79 177.49C181.49 174.82 179.69 181.66 180.17 179.86C182.72 170.18 190.38 162.69 200.12 160.36C202.11 159.88 207.09 158.69 215.05 156.78L191.71 131.19C191.72 133.56 191.74 135.05 191.74 135.64C191.8 143.01 186.86 149.48 179.74 151.38C176.31 152.29 182.16 150.73 179.74 151.38C169.45 154.11 162 163.03 161.14 173.64C161.03 174.9 160.78 178.04 160.37 183.07C160.85 185.25 161.15 186.61 161.27 187.16C163.73 198.21 171.56 207.29 182.13 211.35C182.13 211.35 182.13 211.35 182.13 211.35C189.81 213 194.61 214.03 196.52 214.44C206.31 216.54 212.77 225.91 211.25 235.8C211.12 236.7 210.77 238.95 210.22 242.54L238.79 200.17Z" id="da3nrPJRm"></path><path d="" id="b1OHlLYSID"></path><path d="M515.45 306.08L526.96 304.86L526.96 311.57L516.77 312.99L515.45 306.08Z" id="cokOOB9Da"></path></defs><g><g><g><use xlink:href="#a5gPe8opZ2" opacity="1" fill="#000000" fill-opacity="1"></use></g><g><g><use xlink:href="#n5Pmtgxzu3" opacity="1" fill-opacity="0" stroke="#000000" stroke-width="1" stroke-opacity="1"></use></g></g><g><use xlink:href="#c3BmjQ7tqs" opacity="1" fill="#000000" fill-opacity="1"></use></g><g><use xlink:href="#a1naZVwJn" opacity="1" fill="#000000" fill-opacity="1"></use></g><g><use xlink:href="#awM7ukuZL" opacity="1" fill="#000000" fill-opacity="1"></use></g><g><use xlink:href="#bdaXzdqMx" opacity="1" fill="#000000" fill-opacity="1"></use></g><g><use xlink:href="#c7WXrQpR7" opacity="1" fill="#000000" fill-opacity="1"></use></g><g><use xlink:href="#b1zv9waunC" opacity="1" fill="#000000" fill-opacity="1"></use></g><g><use xlink:href="#bMhfL3D0X" opacity="1" fill="#000000" fill-opacity="1"></use><g><use xlink:href="#bMhfL3D0X" opacity="1" fill-opacity="0" stroke="#000000" stroke-width="1" stroke-opacity="1"></use></g></g><g><g><use xlink:href="#k3kxl2dFI9" opacity="1" fill-opacity="0" stroke="#000000" stroke-width="1" stroke-opacity="1"></use></g></g><g><use xlink:href="#axMuhYwGF" opacity="1" fill="#000000" fill-opacity="1"></use><g><use xlink:href="#axMuhYwGF" opacity="1" fill-opacity="0" stroke="#000000" stroke-width="1" stroke-opacity="1"></use></g></g><g><use xlink:href="#gf3z6GiG9" opacity="1" fill="#000000" fill-opacity="1"></use><g><use xlink:href="#gf3z6GiG9" opacity="1" fill-opacity="0" stroke="#000000" stroke-width="1" stroke-opacity="1"></use></g></g><g><g><use xlink:href="#b1JqCFISA" opacity="1" fill-opacity="0" stroke="#05fff3" stroke-width="1" stroke-opacity="1"></use></g></g><g><use xlink:href="#h55fEPjDMe" opacity="1" fill="#000000" fill-opacity="1"></use><g><use xlink:href="#h55fEPjDMe" opacity="1" fill-opacity="0" stroke="#000000" stroke-width="1" stroke-opacity="1"></use></g></g><g><use xlink:href="#d9c43cDHU" opacity="1" fill="#000000" fill-opacity="1"></use><g><use xlink:href="#d9c43cDHU" opacity="1" fill-opacity="0" stroke="#000000" stroke-width="1" stroke-opacity="1"></use></g></g><g><use xlink:href="#da3nrPJRm" opacity="1" fill="#000000" fill-opacity="1"></use><g><use xlink:href="#da3nrPJRm" opacity="1" fill-opacity="0" stroke="#000000" stroke-width="1" stroke-opacity="1"></use></g></g><g><g><use xlink:href="#b1OHlLYSID" opacity="1" fill-opacity="0" stroke="#000000" stroke-width="1" stroke-opacity="1"></use></g></g><g><use xlink:href="#cokOOB9Da" opacity="1" fill="#000000" fill-opacity="1"></use><g><use xlink:href="#cokOOB9Da" opacity="1" fill-opacity="0" stroke="#000000" stroke-width="1" stroke-opacity="1"></use></g></g></g></g></svg>